<?xml version="1.0" encoding="UTF-8"?>
<svg version="1.1" xmlns="http://www.w3.org/2000/svg" width="512" height="512">
<path d="M0 0 C1.27866943 -0.0112793 2.55733887 -0.02255859 3.87475586 -0.03417969 C5.28955305 -0.02640266 6.704348 -0.01821 8.11914062 -0.00964355 C9.61076542 -0.01506435 11.10238485 -0.02218677 12.59399414 -0.03088379 C16.6436169 -0.04912547 20.69283223 -0.04204633 24.74246216 -0.02936745 C28.97936099 -0.01924407 33.21622481 -0.02863128 37.453125 -0.03491211 C44.56842312 -0.04219046 51.68355521 -0.03259594 58.79882812 -0.0135498 C67.02641862 0.00821938 75.25361265 0.00116814 83.48119354 -0.02085543 C90.54373317 -0.03900413 97.6061534 -0.04157037 104.6687088 -0.03110075 C108.88752237 -0.02486287 113.10614956 -0.02403817 117.32495117 -0.0372467 C121.29119435 -0.04879699 125.25692611 -0.04079505 129.22311401 -0.01766968 C130.6791804 -0.01237811 132.1352898 -0.01390409 133.59133911 -0.02272034 C135.57780425 -0.03363977 137.56436338 -0.01752243 139.55078125 0 C141.21880798 0.00226215 141.21880798 0.00226215 142.92053223 0.00457001 C146.52271984 0.63970259 147.61575522 1.58511378 149.77539062 4.50793457 C150.8258667 7.2288208 150.8258667 7.2288208 151.60644531 10.37805176 C151.90645447 11.558974 152.20646362 12.73989624 152.51556396 13.956604 C152.82302551 15.22651184 153.13048706 16.49641968 153.44726562 17.80480957 C153.77662593 19.12219444 154.10723108 20.43926865 154.43902588 21.75604248 C155.30629033 25.21194598 156.15663763 28.67179534 157.003479 32.13275146 C157.87165929 35.66791336 158.75584332 39.19906423 159.63867188 42.73059082 C161.36655758 49.65253895 163.07659546 56.57878434 164.77539062 63.50793457 C165.45161909 63.50847934 166.12784756 63.50902411 166.82456779 63.50958538 C183.31000836 63.52457952 199.79512706 63.56713235 216.28040886 63.64002514 C224.2527253 63.67461781 232.22486986 63.70002312 240.19726562 63.70349121 C247.14935959 63.70653911 254.10114699 63.72713989 261.05312264 63.76845914 C264.73121692 63.78971655 268.40887618 63.80242757 272.08703232 63.79408836 C276.20216439 63.78508837 280.31614428 63.81529212 284.43115234 63.84851074 C285.63884781 63.8398851 286.84654327 63.83125946 288.09083557 63.82237244 C296.62887107 63.93759282 303.52545382 65.56612897 309.92053032 71.4975462 C317.0765291 79.02495955 318.22025034 85.85373855 318.1697998 95.91230774 C318.17589091 97.05462772 318.18198201 98.19694769 318.18825769 99.37388343 C318.20489532 103.19837222 318.2001106 107.02252836 318.1953125 110.8470459 C318.20101635 113.59044955 318.21114578 116.33383319 318.22097778 119.07722473 C318.24201045 125.75391038 318.24657386 132.43050916 318.2447899 139.10722402 C318.2434811 144.53604405 318.24729244 149.96483703 318.25471497 155.39365196 C318.25681422 156.95879402 318.25891182 158.52393607 318.26100779 160.08907813 C318.26257308 161.25769315 318.26257308 161.25769315 318.26416999 162.44991656 C318.28306388 177.17767449 318.28202487 191.90538259 318.27520066 206.63314762 C318.26962671 220.09579984 318.29044578 233.55826168 318.32356113 247.02086941 C318.35732479 260.85476751 318.37246308 274.68857447 318.3678441 288.52251452 C318.365602 296.28499089 318.37080445 304.04729134 318.39573669 311.80973244 C318.41678455 318.41892688 318.42030757 325.02784895 318.4014371 331.63705472 C318.39229987 335.00665881 318.39380044 338.37534149 318.41179276 341.74497223 C318.4299832 345.40464655 318.41723485 349.06297645 318.39685059 352.72261047 C318.40936843 353.77817274 318.42188628 354.83373501 318.43478346 355.92128402 C318.33878316 363.97958319 316.34855329 370.64480929 310.7856307 376.65916377 C304.52491453 382.59121168 298.3965763 384.96893948 289.82046795 384.89104462 C289.0454886 384.89600413 288.27050926 384.90096365 287.47204569 384.90607345 C284.87765501 384.91901706 282.28378005 384.91064889 279.68937683 384.90234375 C277.80954969 384.90723324 275.92972557 384.91342331 274.04990655 384.92080164 C268.88586534 384.93721695 263.72197663 384.93487996 258.55791843 384.92942667 C252.98790857 384.92675844 247.41793955 384.94128442 241.84794617 384.95352173 C230.93609764 384.9745868 220.02430224 384.97911595 209.11243578 384.97733384 C200.24349729 384.97602673 191.37457539 384.97982776 182.50564003 384.98725891 C179.95190901 384.98935809 177.39817798 384.99145569 174.84444696 384.99355173 C172.93790486 384.99511702 172.93790486 384.99511702 170.99284676 384.99671394 C153.77974374 385.01024913 136.5666487 385.0178396 119.35354137 385.01338959 C118.68047139 385.01321763 118.00740141 385.01304568 117.31393537 385.01286851 C113.9026043 385.01197963 110.49127324 385.01103482 107.07994219 385.0100705 C106.06370399 385.00978395 106.06370399 385.00978395 105.02693572 385.00949161 C103.65688191 385.00910452 102.28682811 385.00871419 100.91677431 385.00832064 C79.60096599 385.00235124 58.28526626 385.01778649 36.96948242 385.04992676 C13.01651105 385.08601286 -10.93638189 385.10529137 -34.88938922 385.10038805 C-47.57027746 385.0981426 -60.25105808 385.10339758 -72.93192482 385.12828064 C-83.72787408 385.14928449 -94.52365669 385.15289476 -105.31961278 385.13398105 C-110.82771167 385.12481759 -116.33549977 385.12369918 -121.84357452 385.1443367 C-126.88765036 385.16302667 -131.9311604 385.15856504 -136.97521456 385.13579088 C-138.79818681 385.13160017 -140.62120226 385.13582096 -142.44412885 385.14938682 C-152.99166507 385.22252268 -162.22010133 385.12995997 -170.34973842 377.51817465 C-177.54640734 370.03215274 -178.66938586 363.14553647 -178.61901855 353.1035614 C-178.62510966 351.96124142 -178.63120076 350.81892145 -178.63747644 349.64198571 C-178.65411407 345.81749692 -178.64932935 341.99334078 -178.64453125 338.16882324 C-178.6502351 335.42541959 -178.66036453 332.68203595 -178.67019653 329.93864441 C-178.6912292 323.26195876 -178.69579261 316.58535998 -178.69400865 309.90864512 C-178.69269985 304.47982509 -178.69651119 299.05103211 -178.70393372 293.62221718 C-178.70603297 292.05707513 -178.70813057 290.49193307 -178.71022654 288.92679101 C-178.71127006 288.14771433 -178.71231359 287.36863764 -178.71338874 286.56595258 C-178.73228263 271.83819465 -178.73124362 257.11048655 -178.72441941 242.38272152 C-178.71884546 228.9200693 -178.73966453 215.45760746 -178.77277988 201.99499973 C-178.80654354 188.16110163 -178.82168183 174.32729467 -178.81706285 160.49335462 C-178.81482075 152.73087825 -178.8200232 144.9685778 -178.84495544 137.2061367 C-178.8660033 130.59694226 -178.86952632 123.98802019 -178.85065585 117.37881442 C-178.84151862 114.00921033 -178.84301919 110.64052765 -178.86101151 107.27089691 C-178.87920195 103.6112226 -178.8664536 99.95289269 -178.84606934 96.29325867 C-178.85858718 95.2376964 -178.87110503 94.18213413 -178.88400221 93.09458512 C-178.78800191 85.03628595 -176.79777204 78.37105986 -171.23484945 72.35670537 C-164.8995173 66.35395859 -159.11828417 64.14955628 -150.5 64.2442627 C-149.60474609 64.26939941 -148.70949219 64.29453613 -147.78710938 64.32043457 C-146.86478516 64.33396973 -145.94246094 64.34750488 -144.9921875 64.3614502 C-142.73570554 64.39652504 -140.48047712 64.4456707 -138.22460938 64.50793457 C-138.24555664 63.92302246 -138.26650391 63.33811035 -138.28808594 62.73547363 C-138.37141053 60.07646992 -138.42331834 57.41774102 -138.47460938 54.75793457 C-138.508125 53.83754395 -138.54164063 52.91715332 -138.57617188 51.96887207 C-138.5890625 51.07941895 -138.60195312 50.18996582 -138.61523438 49.27355957 C-138.63618164 48.45661621 -138.65712891 47.63967285 -138.67871094 46.79797363 C-138.01653105 43.45859334 -137.03947163 42.43252488 -134.22460938 40.50793457 C-131.22276379 39.92330364 -128.27526127 39.94734015 -125.22460938 39.97668457 C-124.35191406 39.97285767 -123.47921875 39.96903076 -122.58007812 39.96508789 C-120.73761845 39.96236967 -118.89512013 39.96972463 -117.05273438 39.9864502 C-114.23415004 40.00786209 -111.41811453 39.98664656 -108.59960938 39.96105957 C-106.80793709 39.96370286 -105.01626639 39.96882788 -103.22460938 39.97668457 C-102.38285156 39.96858765 -101.54109375 39.96049072 -100.67382812 39.95214844 C-99.88621094 39.96475708 -99.09859375 39.97736572 -98.28710938 39.99035645 C-97.25263672 39.99513 -97.25263672 39.99513 -96.19726562 40 C-94.22460938 40.50793457 -94.22460938 40.50793457 -90.22460938 44.50793457 C-90.22460938 51.10793457 -90.22460938 57.70793457 -90.22460938 64.50793457 C-68.77460937 64.17793457 -47.32460937 63.84793457 -25.22460938 63.50793457 C-20.4528558 44.27491709 -20.4528558 44.27491709 -15.71191406 25.03430176 C-15.1078866 22.62419112 -14.50281449 20.21434194 -13.89648438 17.80480957 C-13.44136475 15.92463135 -13.44136475 15.92463135 -12.97705078 14.00646973 C-12.67299316 12.8090918 -12.36893555 11.61171387 -12.05566406 10.37805176 C-11.66927765 8.81918243 -11.66927765 8.81918243 -11.27508545 7.2288208 C-9.03140972 1.41737344 -6.05189404 0.00820749 0 0 Z M44.77539062 48.50793457 C41.62631943 57.06072097 41.62631943 57.06072097 40.77539062 64.50793457 C59.91539062 64.50793457 79.05539062 64.50793457 98.77539062 64.50793457 C97.3068817 54.35499846 97.3068817 54.35499846 94.77539062 48.50793457 C78.27539062 48.50793457 61.77539062 48.50793457 44.77539062 48.50793457 Z M-122.22460938 56.50793457 C-122.22460938 59.14793457 -122.22460938 61.78793457 -122.22460938 64.50793457 C-116.94460937 64.50793457 -111.66460937 64.50793457 -106.22460938 64.50793457 C-106.22460938 61.86793457 -106.22460938 59.22793457 -106.22460938 56.50793457 C-111.50460938 56.50793457 -116.78460938 56.50793457 -122.22460938 56.50793457 Z M221.77539062 112.50793457 C221.77539062 117.78793457 221.77539062 123.06793457 221.77539062 128.50793457 C237.61539062 128.50793457 253.45539063 128.50793457 269.77539062 128.50793457 C269.77539062 123.22793457 269.77539062 117.94793457 269.77539062 112.50793457 C253.93539062 112.50793457 238.09539062 112.50793457 221.77539062 112.50793457 Z M-9.47851562 145.73059082 C-30.6333309 167.12614368 -41.64435321 194.48751436 -41.72460938 224.38293457 C-41.60718053 234.41019691 -41.09602194 243.85165201 -38.22460938 253.50793457 C-37.88429687 254.7273877 -37.54398438 255.94684082 -37.19335938 257.20324707 C-28.57313588 285.56844197 -8.24733018 309.40803277 17.74414062 323.46740723 C44.73027989 337.29131655 75.39951293 340.1591741 104.39648438 331.04309082 C133.50143657 321.19008828 156.80711381 300.24618971 170.65429688 272.86340332 C181.92109479 249.49433941 185.42598332 220.53054978 177.77539062 195.50793457 C177.57139648 194.83407715 177.36740234 194.16021973 177.15722656 193.46594238 C167.60553678 162.58631647 147.12532813 139.15266603 118.86523438 123.94152832 C75.0860826 102.87735122 25.03228985 112.51066973 -9.47851562 145.73059082 Z M-162.22460938 232.50793457 C-162.31473925 255.44804987 -162.31473925 255.44804987 -162.37537098 278.38819027 C-162.39199214 286.59262744 -162.4130906 294.79697306 -162.45092773 303.00134277 C-162.48087166 309.4973054 -162.50019421 315.99319894 -162.50687486 322.48922867 C-162.5107787 325.92741606 -162.51992475 329.36540582 -162.54179955 332.80352974 C-162.56604684 336.6458717 -162.56657616 340.48802201 -162.56518555 344.33044434 C-162.57597137 345.46476898 -162.5867572 346.59909363 -162.59786987 347.76779175 C-162.57425803 353.79659525 -162.21281975 358.21812039 -159.22460938 363.50793457 C-154.10727819 368.49405214 -149.75614093 368.65690848 -142.88032818 368.63936234 C-142.13492556 368.64141497 -141.38952293 368.6434676 -140.62153235 368.64558244 C-138.10986966 368.65126194 -135.59826163 368.64979402 -133.08659363 368.64837646 C-131.27321745 368.65095955 -129.45984184 368.65397255 -127.64646703 368.65737987 C-122.6523234 368.66545966 -117.65819413 368.66723998 -112.66404474 368.66797733 C-107.28219553 368.66982616 -101.9003538 368.67737259 -96.51850891 368.68411255 C-84.74592496 368.6977029 -72.97334442 368.70372155 -61.20075393 368.70812321 C-53.8530309 368.71088419 -46.50530919 368.71512125 -39.15758705 368.71962738 C-18.82243908 368.73182048 1.51270783 368.74212003 21.84785938 368.74550247 C23.14970692 368.74572204 24.45155445 368.7459416 25.79285191 368.74616782 C27.75034666 368.74649524 27.75034666 368.74649524 29.74738675 368.74682927 C32.3918939 368.74727274 35.03640105 368.7477193 37.6809082 368.74816895 C39.64856668 368.74850109 39.64856668 368.74850109 41.65597584 368.74883994 C62.91941392 368.75278938 84.18281776 368.77024768 105.44624261 368.79352847 C127.26581385 368.8172258 149.0853679 368.82970357 170.90495223 368.83087039 C183.16043219 368.83178801 195.41586753 368.83756228 207.67133522 368.85569 C218.10545386 368.87106908 228.53951409 368.87622439 238.97364191 368.8679519 C244.29900665 368.86403775 249.62425368 368.86501229 254.94960403 368.87900925 C259.82327691 368.89170213 264.69674306 368.89059134 269.57041546 368.87841853 C271.3348791 368.87645353 273.09935715 368.87957686 274.8638005 368.8882629 C277.26064739 368.89931646 279.6567597 368.89189487 282.05358601 368.87987137 C282.73996551 368.88746656 283.42634502 368.89506176 284.13352391 368.90288711 C289.10250839 368.84900897 292.42696019 367.74558784 296.77539062 365.50793457 C301.16877816 360.99893158 301.9018441 357.44397057 301.89564514 351.31939697 C301.89701981 350.27054321 301.89839447 349.22168945 301.89981079 348.14105225 C301.89621552 346.99594177 301.89262024 345.8508313 301.88891602 344.67102051 C301.88913506 342.85598022 301.88913506 342.85598022 301.88935852 341.00427246 C301.88878144 337.69054095 301.8837679 334.37687183 301.87678456 331.06315136 C301.87053113 327.59847892 301.86994565 324.13380563 301.86875916 320.66912842 C301.86565171 314.11021648 301.85744622 307.55132122 301.84740967 300.99241662 C301.83513356 292.79186331 301.82966138 284.59130728 301.82421875 276.39074707 C301.81448048 261.76312991 301.79444803 247.13554915 301.77539062 232.50793457 C267.45539063 232.50793457 233.13539063 232.50793457 197.77539062 232.50793457 C196.29039062 242.40793457 196.29039062 242.40793457 194.77539062 252.50793457 C186.18062715 285.72553395 167.73924974 313.79256456 138.77539062 332.50793457 C137.77765625 333.15504395 136.77992188 333.80215332 135.75195312 334.46887207 C108.19107223 351.38962737 71.85447258 356.50534576 40.39013672 349.33972168 C38.1678511 348.77718645 35.97201847 348.16313128 33.77539062 347.50793457 C33.09202637 347.3042627 32.40866211 347.10059082 31.70458984 346.89074707 C2.43316199 337.75179971 -21.47373316 318.95579222 -38.22460938 293.50793457 C-38.77503906 292.71516113 -39.32546875 291.9223877 -39.89257812 291.10559082 C-51.32950299 273.65891456 -55.52179047 252.77907638 -58.22460938 232.50793457 C-92.54460937 232.50793457 -126.86460938 232.50793457 -162.22460938 232.50793457 Z " fill="#56A3FE" transform="translate(186.224609375,63.4920654296875)"/>
<path d="M0 0 C1.27866943 -0.0112793 2.55733887 -0.02255859 3.87475586 -0.03417969 C5.28955305 -0.02640266 6.704348 -0.01821 8.11914062 -0.00964355 C9.61076542 -0.01506435 11.10238485 -0.02218677 12.59399414 -0.03088379 C16.6436169 -0.04912547 20.69283223 -0.04204633 24.74246216 -0.02936745 C28.97936099 -0.01924407 33.21622481 -0.02863128 37.453125 -0.03491211 C44.56842312 -0.04219046 51.68355521 -0.03259594 58.79882812 -0.0135498 C67.02641862 0.00821938 75.25361265 0.00116814 83.48119354 -0.02085543 C90.54373317 -0.03900413 97.6061534 -0.04157037 104.6687088 -0.03110075 C108.88752237 -0.02486287 113.10614956 -0.02403817 117.32495117 -0.0372467 C121.29119435 -0.04879699 125.25692611 -0.04079505 129.22311401 -0.01766968 C130.6791804 -0.01237811 132.1352898 -0.01390409 133.59133911 -0.02272034 C135.57780425 -0.03363977 137.56436338 -0.01752243 139.55078125 0 C141.21880798 0.00226215 141.21880798 0.00226215 142.92053223 0.00457001 C146.52271984 0.63970259 147.61575522 1.58511378 149.77539062 4.50793457 C150.8258667 7.2288208 150.8258667 7.2288208 151.60644531 10.37805176 C151.90645447 11.558974 152.20646362 12.73989624 152.51556396 13.956604 C152.82302551 15.22651184 153.13048706 16.49641968 153.44726562 17.80480957 C153.77662593 19.12219444 154.10723108 20.43926865 154.43902588 21.75604248 C155.30629033 25.21194598 156.15663763 28.67179534 157.003479 32.13275146 C157.87165929 35.66791336 158.75584332 39.19906423 159.63867188 42.73059082 C161.36655758 49.65253895 163.07659546 56.57878434 164.77539062 63.50793457 C165.45161909 63.50847934 166.12784756 63.50902411 166.82456779 63.50958538 C183.31000836 63.52457952 199.79512706 63.56713235 216.28040886 63.64002514 C224.2527253 63.67461781 232.22486986 63.70002312 240.19726562 63.70349121 C247.14935959 63.70653911 254.10114699 63.72713989 261.05312264 63.76845914 C264.73121692 63.78971655 268.40887618 63.80242757 272.08703232 63.79408836 C276.20216439 63.78508837 280.31614428 63.81529212 284.43115234 63.84851074 C285.63884781 63.8398851 286.84654327 63.83125946 288.09083557 63.82237244 C296.62887107 63.93759282 303.52545382 65.56612897 309.92053032 71.4975462 C317.0765291 79.02495955 318.22025034 85.85373855 318.1697998 95.91230774 C318.17589091 97.05462772 318.18198201 98.19694769 318.18825769 99.37388343 C318.20489532 103.19837222 318.2001106 107.02252836 318.1953125 110.8470459 C318.20101635 113.59044955 318.21114578 116.33383319 318.22097778 119.07722473 C318.24201045 125.75391038 318.24657386 132.43050916 318.2447899 139.10722402 C318.2434811 144.53604405 318.24729244 149.96483703 318.25471497 155.39365196 C318.25681422 156.95879402 318.25891182 158.52393607 318.26100779 160.08907813 C318.26257308 161.25769315 318.26257308 161.25769315 318.26416999 162.44991656 C318.28306388 177.17767449 318.28202487 191.90538259 318.27520066 206.63314762 C318.26962671 220.09579984 318.29044578 233.55826168 318.32356113 247.02086941 C318.35732479 260.85476751 318.37246308 274.68857447 318.3678441 288.52251452 C318.365602 296.28499089 318.37080445 304.04729134 318.39573669 311.80973244 C318.41678455 318.41892688 318.42030757 325.02784895 318.4014371 331.63705472 C318.39229987 335.00665881 318.39380044 338.37534149 318.41179276 341.74497223 C318.4299832 345.40464655 318.41723485 349.06297645 318.39685059 352.72261047 C318.40936843 353.77817274 318.42188628 354.83373501 318.43478346 355.92128402 C318.33878316 363.97958319 316.34855329 370.64480929 310.7856307 376.65916377 C304.52491453 382.59121168 298.3965763 384.96893948 289.82046795 384.89104462 C289.0454886 384.89600413 288.27050926 384.90096365 287.47204569 384.90607345 C284.87765501 384.91901706 282.28378005 384.91064889 279.68937683 384.90234375 C277.80954969 384.90723324 275.92972557 384.91342331 274.04990655 384.92080164 C268.88586534 384.93721695 263.72197663 384.93487996 258.55791843 384.92942667 C252.98790857 384.92675844 247.41793955 384.94128442 241.84794617 384.95352173 C230.93609764 384.9745868 220.02430224 384.97911595 209.11243578 384.97733384 C200.24349729 384.97602673 191.37457539 384.97982776 182.50564003 384.98725891 C179.95190901 384.98935809 177.39817798 384.99145569 174.84444696 384.99355173 C172.93790486 384.99511702 172.93790486 384.99511702 170.99284676 384.99671394 C153.77974374 385.01024913 136.5666487 385.0178396 119.35354137 385.01338959 C118.68047139 385.01321763 118.00740141 385.01304568 117.31393537 385.01286851 C113.9026043 385.01197963 110.49127324 385.01103482 107.07994219 385.0100705 C106.06370399 385.00978395 106.06370399 385.00978395 105.02693572 385.00949161 C103.65688191 385.00910452 102.28682811 385.00871419 100.91677431 385.00832064 C79.60096599 385.00235124 58.28526626 385.01778649 36.96948242 385.04992676 C13.01651105 385.08601286 -10.93638189 385.10529137 -34.88938922 385.10038805 C-47.57027746 385.0981426 -60.25105808 385.10339758 -72.93192482 385.12828064 C-83.72787408 385.14928449 -94.52365669 385.15289476 -105.31961278 385.13398105 C-110.82771167 385.12481759 -116.33549977 385.12369918 -121.84357452 385.1443367 C-126.88765036 385.16302667 -131.9311604 385.15856504 -136.97521456 385.13579088 C-138.79818681 385.13160017 -140.62120226 385.13582096 -142.44412885 385.14938682 C-152.99166507 385.22252268 -162.22010133 385.12995997 -170.34973842 377.51817465 C-177.54640734 370.03215274 -178.66938586 363.14553647 -178.61901855 353.1035614 C-178.62510966 351.96124142 -178.63120076 350.81892145 -178.63747644 349.64198571 C-178.65411407 345.81749692 -178.64932935 341.99334078 -178.64453125 338.16882324 C-178.6502351 335.42541959 -178.66036453 332.68203595 -178.67019653 329.93864441 C-178.6912292 323.26195876 -178.69579261 316.58535998 -178.69400865 309.90864512 C-178.69269985 304.47982509 -178.69651119 299.05103211 -178.70393372 293.62221718 C-178.70603297 292.05707513 -178.70813057 290.49193307 -178.71022654 288.92679101 C-178.71127006 288.14771433 -178.71231359 287.36863764 -178.71338874 286.56595258 C-178.73228263 271.83819465 -178.73124362 257.11048655 -178.72441941 242.38272152 C-178.71884546 228.9200693 -178.73966453 215.45760746 -178.77277988 201.99499973 C-178.80654354 188.16110163 -178.82168183 174.32729467 -178.81706285 160.49335462 C-178.81482075 152.73087825 -178.8200232 144.9685778 -178.84495544 137.2061367 C-178.8660033 130.59694226 -178.86952632 123.98802019 -178.85065585 117.37881442 C-178.84151862 114.00921033 -178.84301919 110.64052765 -178.86101151 107.27089691 C-178.87920195 103.6112226 -178.8664536 99.95289269 -178.84606934 96.29325867 C-178.85858718 95.2376964 -178.87110503 94.18213413 -178.88400221 93.09458512 C-178.78800191 85.03628595 -176.79777204 78.37105986 -171.23484945 72.35670537 C-164.8995173 66.35395859 -159.11828417 64.14955628 -150.5 64.2442627 C-149.60474609 64.26939941 -148.70949219 64.29453613 -147.78710938 64.32043457 C-146.86478516 64.33396973 -145.94246094 64.34750488 -144.9921875 64.3614502 C-142.73570554 64.39652504 -140.48047712 64.4456707 -138.22460938 64.50793457 C-138.24555664 63.92302246 -138.26650391 63.33811035 -138.28808594 62.73547363 C-138.37141053 60.07646992 -138.42331834 57.41774102 -138.47460938 54.75793457 C-138.508125 53.83754395 -138.54164063 52.91715332 -138.57617188 51.96887207 C-138.5890625 51.07941895 -138.60195312 50.18996582 -138.61523438 49.27355957 C-138.63618164 48.45661621 -138.65712891 47.63967285 -138.67871094 46.79797363 C-138.01653105 43.45859334 -137.03947163 42.43252488 -134.22460938 40.50793457 C-131.22276379 39.92330364 -128.27526127 39.94734015 -125.22460938 39.97668457 C-124.35191406 39.97285767 -123.47921875 39.96903076 -122.58007812 39.96508789 C-120.73761845 39.96236967 -118.89512013 39.96972463 -117.05273438 39.9864502 C-114.23415004 40.00786209 -111.41811453 39.98664656 -108.59960938 39.96105957 C-106.80793709 39.96370286 -105.01626639 39.96882788 -103.22460938 39.97668457 C-102.38285156 39.96858765 -101.54109375 39.96049072 -100.67382812 39.95214844 C-99.88621094 39.96475708 -99.09859375 39.97736572 -98.28710938 39.99035645 C-97.25263672 39.99513 -97.25263672 39.99513 -96.19726562 40 C-94.22460938 40.50793457 -94.22460938 40.50793457 -90.22460938 44.50793457 C-90.22460938 51.10793457 -90.22460938 57.70793457 -90.22460938 64.50793457 C-68.77460937 64.17793457 -47.32460937 63.84793457 -25.22460938 63.50793457 C-20.4528558 44.27491709 -20.4528558 44.27491709 -15.71191406 25.03430176 C-15.1078866 22.62419112 -14.50281449 20.21434194 -13.89648438 17.80480957 C-13.44136475 15.92463135 -13.44136475 15.92463135 -12.97705078 14.00646973 C-12.67299316 12.8090918 -12.36893555 11.61171387 -12.05566406 10.37805176 C-11.66927765 8.81918243 -11.66927765 8.81918243 -11.27508545 7.2288208 C-9.03140972 1.41737344 -6.05189404 0.00820749 0 0 Z M3.77539062 16.50793457 C-0.27410065 31.01805935 -0.27410065 31.01805935 -3.97851562 45.60168457 C-4.44446727 47.49382 -4.91128631 49.385742 -5.37890625 51.27746582 C-6.0933727 54.17454168 -6.80257487 57.07248483 -7.49780273 59.97424316 C-8.18474108 62.8331363 -8.89214086 65.68628869 -9.60351562 68.53918457 C-9.80779678 69.41296753 -10.01207794 70.28675049 -10.22254944 71.18701172 C-10.42633713 71.98965454 -10.63012482 72.79229736 -10.84008789 73.6192627 C-11.01153824 74.32442017 -11.18298859 75.02957764 -11.3596344 75.75610352 C-12.55701344 78.18115147 -13.72343027 78.52356175 -16.22460938 79.50793457 C-18.85244465 79.75288773 -18.85244465 79.75288773 -21.89753723 79.74603271 C-23.63234093 79.7497715 -23.63234093 79.7497715 -25.40219116 79.75358582 C-26.66721466 79.74631973 -27.93223816 79.73905365 -29.2355957 79.73156738 C-30.58441667 79.731043 -31.9332383 79.73147915 -33.28205872 79.73280334 C-36.18494157 79.73413628 -39.0877398 79.72973025 -41.99061012 79.72119904 C-46.58418151 79.70880918 -51.17759597 79.71577061 -55.77116394 79.72662354 C-68.83291815 79.75507857 -81.89453776 79.76753324 -94.95629883 79.73791504 C-102.17169972 79.72171608 -109.38675817 79.72688831 -116.60212344 79.75571132 C-120.4182377 79.76999064 -124.23363928 79.77305795 -128.04972267 79.74948883 C-131.6410736 79.72731096 -135.23131889 79.73292348 -138.82262993 79.7594738 C-140.76193213 79.76649375 -142.70127136 79.74383281 -144.64044189 79.72016907 C-151.23296413 79.7981016 -155.33791405 80.2076811 -160.06676769 85.02618027 C-162.34692726 87.9442271 -162.34842334 89.97006161 -162.34486389 93.6078186 C-162.34623856 94.68757965 -162.34761322 95.7673407 -162.34902954 96.87982178 C-162.34543427 98.06952576 -162.34183899 99.25922974 -162.33813477 100.48498535 C-162.33828079 101.73373444 -162.33842682 102.98248352 -162.33857727 104.26907349 C-162.3379989 107.6986212 -162.33297456 111.12810914 -162.32600331 114.55764627 C-162.31976315 118.13977795 -162.31916545 121.72191036 -162.31797791 125.30404663 C-162.31486655 132.08968707 -162.30665579 138.87531146 -162.29662842 145.66094482 C-162.2833742 154.82870854 -162.27796579 163.99647663 -162.2721262 173.16424751 C-162.26271577 187.61215523 -162.24279555 202.06002906 -162.22460938 216.50793457 C-127.57460937 216.50793457 -92.92460938 216.50793457 -57.22460938 216.50793457 C-56.72960937 210.07293457 -56.72960937 210.07293457 -56.22460938 203.50793457 C-55.60287316 200.16546013 -54.94991802 196.97085992 -54.09960938 193.69543457 C-53.88296631 192.84795654 -53.66632324 192.00047852 -53.44311523 191.12731934 C-51.21683181 182.83416085 -48.01704218 175.19438321 -44.22460938 167.50793457 C-43.72960937 166.50246582 -43.23460937 165.49699707 -42.72460938 164.46105957 C-37.0865259 153.61387723 -29.58842185 144.3620395 -21.22460938 135.50793457 C-20.53882813 134.7577002 -19.85304687 134.00746582 -19.14648438 133.23449707 C1.23524489 111.72044951 32.63121866 98.12280722 62.13867188 97.30480957 C99.38306968 96.80746689 131.44291144 107.68898029 158.77539062 133.50793457 C159.525625 134.19371582 160.27585937 134.87949707 161.04882812 135.58605957 C176.44264374 150.16967436 187.19236375 170.18115919 192.77539062 190.50793457 C193.08089844 191.61652832 193.38640625 192.72512207 193.70117188 193.86730957 C195.64817798 201.58151385 196.15185653 208.40199136 196.77539062 216.50793457 C231.42539062 216.50793457 266.07539063 216.50793457 301.77539062 216.50793457 C301.95022151 193.92889584 301.95022151 193.92889584 302.06835938 171.34973145 C302.10395043 162.14078709 302.1457718 152.93217232 302.22802734 143.72351074 C302.28790761 137.01659537 302.32655812 130.30994756 302.33992159 123.6027723 C302.3477311 120.05255219 302.36603004 116.50309742 302.40977097 112.95312309 C302.45825171 108.98614235 302.45932491 105.01990429 302.45654297 101.0526123 C302.47811462 99.8808847 302.49968628 98.7091571 302.52191162 97.50192261 C302.47357302 91.13353383 301.90344244 87.32135746 297.35691261 82.69581699 C294.14269689 80.28161701 291.05808931 80.37790127 287.19580078 80.36317444 C286.03485901 80.35627594 284.87391724 80.34937744 283.67779541 80.3422699 C282.40289246 80.33965652 281.1279895 80.33704315 279.81445312 80.33435059 C278.45928739 80.32804483 277.10412373 80.321279 275.7489624 80.31408691 C272.83026562 80.29942048 269.91157682 80.28769447 266.99285889 80.27813911 C262.37947835 80.26269224 257.76616651 80.23874439 253.15283203 80.21324158 C240.03422379 80.14202014 226.91557665 80.08220254 213.796875 80.03112793 C206.55193401 80.00284633 199.30706181 79.96747973 192.06219292 79.92447418 C187.47430306 79.89767045 182.88649102 79.87978488 178.29853821 79.86843693 C175.44671965 79.85932423 172.59499588 79.84196921 169.74323273 79.822258 C167.78651013 79.81119676 165.82973949 79.81003204 163.87298584 79.80912781 C162.71204407 79.79940948 161.55110229 79.78969116 160.35498047 79.77967834 C159.34398285 79.77544641 158.33298523 79.77121447 157.29135132 79.76685429 C154.77539062 79.50793457 154.77539062 79.50793457 151.77539062 77.50793457 C149.84813006 73.60417687 148.9137739 69.40946288 147.90039062 65.19543457 C147.54631237 63.75140247 147.19214334 62.30739263 146.83789062 60.86340332 C146.66 60.13298828 146.48210937 59.40257324 146.29882812 58.65002441 C145.51263782 55.43265792 144.70604352 52.2204755 143.90039062 49.00793457 C141.19205729 38.17460124 138.48372396 27.3412679 135.77539062 16.50793457 C92.21539062 16.50793457 48.65539062 16.50793457 3.77539062 16.50793457 Z M-122.22460938 56.50793457 C-122.22460938 59.14793457 -122.22460938 61.78793457 -122.22460938 64.50793457 C-116.94460937 64.50793457 -111.66460937 64.50793457 -106.22460938 64.50793457 C-106.22460938 61.86793457 -106.22460938 59.22793457 -106.22460938 56.50793457 C-111.50460938 56.50793457 -116.78460938 56.50793457 -122.22460938 56.50793457 Z M-9.47851562 145.73059082 C-30.6333309 167.12614368 -41.64435321 194.48751436 -41.72460938 224.38293457 C-41.60718053 234.41019691 -41.09602194 243.85165201 -38.22460938 253.50793457 C-37.88429687 254.7273877 -37.54398438 255.94684082 -37.19335938 257.20324707 C-28.57313588 285.56844197 -8.24733018 309.40803277 17.74414062 323.46740723 C44.73027989 337.29131655 75.39951293 340.1591741 104.39648438 331.04309082 C133.50143657 321.19008828 156.80711381 300.24618971 170.65429688 272.86340332 C181.92109479 249.49433941 185.42598332 220.53054978 177.77539062 195.50793457 C177.57139648 194.83407715 177.36740234 194.16021973 177.15722656 193.46594238 C167.60553678 162.58631647 147.12532813 139.15266603 118.86523438 123.94152832 C75.0860826 102.87735122 25.03228985 112.51066973 -9.47851562 145.73059082 Z M-162.22460938 232.50793457 C-162.31473925 255.44804987 -162.31473925 255.44804987 -162.37537098 278.38819027 C-162.39199214 286.59262744 -162.4130906 294.79697306 -162.45092773 303.00134277 C-162.48087166 309.4973054 -162.50019421 315.99319894 -162.50687486 322.48922867 C-162.5107787 325.92741606 -162.51992475 329.36540582 -162.54179955 332.80352974 C-162.56604684 336.6458717 -162.56657616 340.48802201 -162.56518555 344.33044434 C-162.57597137 345.46476898 -162.5867572 346.59909363 -162.59786987 347.76779175 C-162.57425803 353.79659525 -162.21281975 358.21812039 -159.22460938 363.50793457 C-154.10727819 368.49405214 -149.75614093 368.65690848 -142.88032818 368.63936234 C-142.13492556 368.64141497 -141.38952293 368.6434676 -140.62153235 368.64558244 C-138.10986966 368.65126194 -135.59826163 368.64979402 -133.08659363 368.64837646 C-131.27321745 368.65095955 -129.45984184 368.65397255 -127.64646703 368.65737987 C-122.6523234 368.66545966 -117.65819413 368.66723998 -112.66404474 368.66797733 C-107.28219553 368.66982616 -101.9003538 368.67737259 -96.51850891 368.68411255 C-84.74592496 368.6977029 -72.97334442 368.70372155 -61.20075393 368.70812321 C-53.8530309 368.71088419 -46.50530919 368.71512125 -39.15758705 368.71962738 C-18.82243908 368.73182048 1.51270783 368.74212003 21.84785938 368.74550247 C23.14970692 368.74572204 24.45155445 368.7459416 25.79285191 368.74616782 C27.75034666 368.74649524 27.75034666 368.74649524 29.74738675 368.74682927 C32.3918939 368.74727274 35.03640105 368.7477193 37.6809082 368.74816895 C39.64856668 368.74850109 39.64856668 368.74850109 41.65597584 368.74883994 C62.91941392 368.75278938 84.18281776 368.77024768 105.44624261 368.79352847 C127.26581385 368.8172258 149.0853679 368.82970357 170.90495223 368.83087039 C183.16043219 368.83178801 195.41586753 368.83756228 207.67133522 368.85569 C218.10545386 368.87106908 228.53951409 368.87622439 238.97364191 368.8679519 C244.29900665 368.86403775 249.62425368 368.86501229 254.94960403 368.87900925 C259.82327691 368.89170213 264.69674306 368.89059134 269.57041546 368.87841853 C271.3348791 368.87645353 273.09935715 368.87957686 274.8638005 368.8882629 C277.26064739 368.89931646 279.6567597 368.89189487 282.05358601 368.87987137 C282.73996551 368.88746656 283.42634502 368.89506176 284.13352391 368.90288711 C289.10250839 368.84900897 292.42696019 367.74558784 296.77539062 365.50793457 C301.16877816 360.99893158 301.9018441 357.44397057 301.89564514 351.31939697 C301.89701981 350.27054321 301.89839447 349.22168945 301.89981079 348.14105225 C301.89621552 346.99594177 301.89262024 345.8508313 301.88891602 344.67102051 C301.88913506 342.85598022 301.88913506 342.85598022 301.88935852 341.00427246 C301.88878144 337.69054095 301.8837679 334.37687183 301.87678456 331.06315136 C301.87053113 327.59847892 301.86994565 324.13380563 301.86875916 320.66912842 C301.86565171 314.11021648 301.85744622 307.55132122 301.84740967 300.99241662 C301.83513356 292.79186331 301.82966138 284.59130728 301.82421875 276.39074707 C301.81448048 261.76312991 301.79444803 247.13554915 301.77539062 232.50793457 C267.45539063 232.50793457 233.13539063 232.50793457 197.77539062 232.50793457 C196.29039062 242.40793457 196.29039062 242.40793457 194.77539062 252.50793457 C186.18062715 285.72553395 167.73924974 313.79256456 138.77539062 332.50793457 C137.77765625 333.15504395 136.77992188 333.80215332 135.75195312 334.46887207 C108.19107223 351.38962737 71.85447258 356.50534576 40.39013672 349.33972168 C38.1678511 348.77718645 35.97201847 348.16313128 33.77539062 347.50793457 C33.09202637 347.3042627 32.40866211 347.10059082 31.70458984 346.89074707 C2.43316199 337.75179971 -21.47373316 318.95579222 -38.22460938 293.50793457 C-38.77503906 292.71516113 -39.32546875 291.9223877 -39.89257812 291.10559082 C-51.32950299 273.65891456 -55.52179047 252.77907638 -58.22460938 232.50793457 C-92.54460937 232.50793457 -126.86460938 232.50793457 -162.22460938 232.50793457 Z " fill="#004FAC" transform="translate(186.224609375,63.4920654296875)"/>
<path d="M0 0 C19.41513413 15.83036047 34.05409201 37.67987498 37 63 C38.99936484 91.27427967 34.23100056 117.17178286 15.328125 139.16015625 C-1.08462646 157.71519166 -23.00986243 171.44500696 -48.21777344 173.22753906 C-76.8329536 174.49950262 -101.20094475 168.80835389 -123.1875 149.625 C-141.72962913 132.23989973 -154.23970686 110.00534464 -155.3828125 84.2890625 C-156.09445376 55.78869783 -149.21659255 31.57486407 -129.3359375 10.37109375 C-94.83017582 -24.65398542 -39.47352935 -30.18232772 0 0 Z " fill="#56A3FE" transform="translate(315,211)"/>
<path d="M0 0 C19.41513413 15.83036047 34.05409201 37.67987498 37 63 C38.99936484 91.27427967 34.23100056 117.17178286 15.328125 139.16015625 C-1.08462646 157.71519166 -23.00986243 171.44500696 -48.21777344 173.22753906 C-76.8329536 174.49950262 -101.20094475 168.80835389 -123.1875 149.625 C-141.72962913 132.23989973 -154.23970686 110.00534464 -155.3828125 84.2890625 C-156.09445376 55.78869783 -149.21659255 31.57486407 -129.3359375 10.37109375 C-94.83017582 -24.65398542 -39.47352935 -30.18232772 0 0 Z M-111 16 C-111.58652344 16.44472656 -112.17304688 16.88945312 -112.77734375 17.34765625 C-126.98900295 28.40116896 -136.77228522 48.28270591 -139 66 C-141.00189746 88.79392625 -135.57872475 110.0128897 -121 128 C-120.45730469 128.70640625 -119.91460937 129.4128125 -119.35546875 130.140625 C-107.31747418 145.01970344 -87.84011986 154.68650921 -69 157 C-48.15623939 158.95359487 -27.80961701 154.24092983 -11 141.375 C-9.66041784 140.25744803 -8.32629998 139.13328335 -7 138 C-5.4840625 136.8553125 -5.4840625 136.8553125 -3.9375 135.6875 C9.34331347 123.53696852 19.93184916 104.20346681 21.13671875 85.92602539 C22.10469015 62.95299261 17.38746498 42.67528951 2 25 C1.33291016 24.12021484 1.33291016 24.12021484 0.65234375 23.22265625 C-10.74035062 8.57490635 -30.92562617 -0.66993012 -49 -3 C-72.28498092 -4.50024038 -93.10135257 0.41808773 -111 16 Z " fill="#004FAC" transform="translate(315,211)"/>
<path d="M0 0 C0.66569504 -0.00554901 1.33139008 -0.01109802 2.01725769 -0.01681519 C4.20691044 -0.02857861 6.39447797 -0.00437471 8.58398438 0.02148438 C10.11185614 0.02319649 11.63973084 0.02312877 13.16760254 0.0213623 C16.36543997 0.02301365 19.56257476 0.04167599 22.76025391 0.07324219 C26.85265379 0.1129199 30.94413402 0.11728643 35.03668976 0.10977936 C38.19037249 0.1067051 41.3438497 0.11884625 44.4974823 0.13591003 C46.00610565 0.14292529 47.5147523 0.14606636 49.02339172 0.1452179 C51.13450962 0.14702221 53.24453978 0.16845545 55.35546875 0.1953125 C57.15485901 0.20794128 57.15485901 0.20794128 58.99060059 0.2208252 C62.49850476 0.65492985 64.39238164 1.4656291 67.17773438 3.61523438 C68.36523438 6.55664062 68.36523438 6.55664062 69.17773438 10.17773438 C69.49342594 11.52326123 69.81123158 12.86829338 70.13085938 14.21289062 C70.29521484 14.92461426 70.45957031 15.63633789 70.62890625 16.36962891 C71.20366084 18.72131604 71.85693443 21.03802861 72.53710938 23.36132812 C72.88322266 24.54843384 72.88322266 24.54843384 73.23632812 25.75952148 C73.68682732 27.29443206 74.14231413 28.82789032 74.60351562 30.35961914 C76.09982977 35.56789814 77.62652095 40.99362058 74.86523438 45.99023438 C71.28293253 49.43985838 66.75160826 48.76967836 62.09790039 48.77636719 C60.86330078 48.78381454 60.86330078 48.78381454 59.60375977 48.79141235 C56.87971157 48.80602344 54.15572157 48.81283351 51.43164062 48.81835938 C49.53978982 48.82411081 47.64793903 48.82986855 45.75608826 48.83563232 C41.78913094 48.8461387 37.82219388 48.85198404 33.85522461 48.85546875 C28.76959772 48.86095881 23.68423785 48.88499928 18.5986948 48.9134407 C14.69108799 48.93205228 10.78354576 48.93727185 6.87589836 48.93880463 C5.00078811 48.94183403 3.12567907 48.9498722 1.25061226 48.96298981 C-1.37081198 48.98002266 -3.99158016 48.97817716 -6.61303711 48.97167969 C-7.77661491 48.98550186 -7.77661491 48.98550186 -8.96369934 48.99960327 C-12.14930027 48.97483787 -14.45088075 48.81477944 -17.28269958 47.29324341 C-19.75380944 44.59992298 -19.67325914 42.20107764 -19.82226562 38.61523438 C-19.43670406 35.94898405 -18.98383333 33.48835594 -18.34570312 30.88867188 C-18.17857819 30.17796539 -18.01145325 29.46725891 -17.83926392 28.73501587 C-17.48406731 27.24269809 -17.12233988 25.75192101 -16.75439453 24.26269531 C-16.19827321 21.9943442 -15.67532965 19.71999268 -15.15429688 17.44335938 C-14.80341557 15.9871509 -14.45061492 14.53140328 -14.09570312 13.07617188 C-13.94338226 12.40210297 -13.7910614 11.72803406 -13.63412476 11.03353882 C-11.67019568 3.35071427 -7.90002751 -0.01352972 0 0 Z M3.17773438 16.61523438 C0.02866318 25.16802078 0.02866318 25.16802078 -0.82226562 32.61523438 C18.31773437 32.61523438 37.45773437 32.61523438 57.17773438 32.61523438 C55.70922545 22.46229827 55.70922545 22.46229827 53.17773438 16.61523438 C36.67773438 16.61523438 20.17773438 16.61523438 3.17773438 16.61523438 Z " fill="#004FAC" transform="translate(227.822265625,95.384765625)"/>
<path d="M0 0 C0.66569504 -0.00554901 1.33139008 -0.01109802 2.01725769 -0.01681519 C4.20691044 -0.02857861 6.39447797 -0.00437471 8.58398438 0.02148438 C10.11185614 0.02319649 11.63973084 0.02312877 13.16760254 0.0213623 C16.36543997 0.02301365 19.56257476 0.04167599 22.76025391 0.07324219 C26.85265379 0.1129199 30.94413402 0.11728643 35.03668976 0.10977936 C38.19037249 0.1067051 41.3438497 0.11884625 44.4974823 0.13591003 C46.00610565 0.14292529 47.5147523 0.14606636 49.02339172 0.1452179 C51.13450962 0.14702221 53.24453978 0.16845545 55.35546875 0.1953125 C57.15485901 0.20794128 57.15485901 0.20794128 58.99060059 0.2208252 C62.47938538 0.65256382 64.38053785 1.52169287 67.17773438 3.61523438 C68.76779969 6.795365 68.36190514 10.23494095 68.38085938 13.72851562 C68.38655945 14.53508102 68.39225952 15.34164642 68.39813232 16.1726532 C68.40758633 17.88160896 68.41411789 19.59058298 68.41796875 21.29956055 C68.42765757 23.90706479 68.45866937 26.51377515 68.49023438 29.12109375 C68.49676622 30.78189636 68.50201598 32.44270461 68.50585938 34.10351562 C68.51820618 34.88076492 68.53055298 35.65801422 68.54327393 36.45881653 C68.52467866 41.00638921 68.10123519 44.05419801 65.17773438 47.61523438 C61.7763977 48.74901327 59.15369216 48.75607614 55.56665039 48.77636719 C54.89964111 48.78133209 54.23263184 48.786297 53.54541016 48.79141235 C51.34080979 48.80600722 49.13628134 48.81283076 46.93164062 48.81835938 C45.39851378 48.82411214 43.86538694 48.82986986 42.33226013 48.83563232 C39.11855738 48.84613407 35.9048796 48.85198243 32.69116211 48.85546875 C28.57405421 48.86095796 24.45727627 48.88499827 20.34027195 48.9134407 C17.17383356 48.93206534 14.00747479 48.93727254 10.84098625 48.93880463 C9.32313161 48.94183107 7.80527836 48.94985938 6.28747749 48.96298981 C4.16413352 48.98005061 2.04159765 48.97817077 -0.08178711 48.97167969 C-1.28963364 48.97532532 -2.49748016 48.97897095 -3.7419281 48.98272705 C-7.10057853 48.58203089 -8.46788703 48.00404465 -10.82226562 45.61523438 C-12.78048517 39.74057574 -12.12932848 33.01991266 -12.17236328 26.85546875 C-12.18893204 25.11542393 -12.21623452 23.37544743 -12.25439453 21.63574219 C-12.30923444 19.12073651 -12.33104423 16.6073203 -12.34570312 14.09179688 C-12.3683725 13.31768463 -12.39104187 12.54357239 -12.41439819 11.7460022 C-12.39953432 7.93512488 -12.07922495 5.94480367 -9.71218872 2.90890503 C-6.1759984 0.10230579 -4.46950485 -0.00765455 0 0 Z M4.17773438 16.61523438 C4.17773438 21.89523438 4.17773438 27.17523438 4.17773438 32.61523438 C20.01773437 32.61523438 35.85773438 32.61523438 52.17773438 32.61523438 C52.17773438 27.33523437 52.17773438 22.05523437 52.17773438 16.61523438 C36.33773437 16.61523438 20.49773437 16.61523438 4.17773438 16.61523438 Z " fill="#004FAC" transform="translate(403.822265625,159.384765625)"/>
<path d="M0 0 C5.82485779 3.51996782 10.54466582 8.98962934 12.5625 15.5 C13.36764105 23.33608208 13.68710392 31.11922577 8.5625 37.5 C3.75801361 42.54521222 -0.59927055 46.10562995 -7.70703125 46.8359375 C-16.22326573 46.92983204 -22.11345494 46.6177288 -28.40234375 40.62890625 C-34.7841668 33.72505269 -35.91792252 28.29832071 -35.7421875 18.9453125 C-35.04689797 11.08319245 -31.38995981 6.95041296 -25.53515625 1.9453125 C-18.47077988 -2.92213491 -7.84396301 -3.47595223 0 0 Z " fill="#004FAC" transform="translate(131.4375,369.5)"/>
<path d="M0 0 C2.0625 1.5625 2.0625 1.5625 3 4 C3.17821261 6.85140177 2.92914963 9.292848 2 12 C-0.93837168 14.85194898 -2.53597436 15 -6.625 15 C-10 14 -10 14 -12 11.875 C-13.30782688 8.11499772 -13.06090617 5.81926223 -12 2 C-8.81688665 -2.07438508 -4.54417813 -1.38635943 0 0 Z " fill="#53A0FB" transform="translate(125,385)"/>
</svg>
