<?xml version="1.0" encoding="UTF-8"?>
<svg version="1.1" xmlns="http://www.w3.org/2000/svg" width="276" height="66">
<path d="M0 0 C6.6 0 13.2 0 20 0 C20.495 3.465 20.495 3.465 21 7 C22.12019531 6.90460937 23.24039063 6.80921875 24.39453125 6.7109375 C25.8671435 6.59838115 27.33980237 6.4864337 28.8125 6.375 C29.55048828 6.31054688 30.28847656 6.24609375 31.04882812 6.1796875 C36.66015625 5.7734375 36.66015625 5.7734375 40 8 C40.37231445 10.84155273 40.37231445 10.84155273 40.36328125 14.43359375 C40.36263672 15.72201172 40.36199219 17.01042969 40.36132812 18.33789062 C40.35302979 19.01053955 40.34473145 19.68318848 40.33618164 20.3762207 C40.31262816 22.42634513 40.31561465 24.47516565 40.32226562 26.52539062 C40.26688476 36.59967286 40.26688476 36.59967286 38 40 C35.64697266 40.3742218 35.64697266 40.3742218 32.6640625 40.37231445 C31.54950684 40.37854324 30.43495117 40.38477203 29.28662109 40.39118958 C28.07828613 40.38197983 26.86995117 40.37277008 25.625 40.36328125 C24.38959473 40.36377975 23.15418945 40.36427826 21.88134766 40.36479187 C18.59398475 40.36184634 15.30705134 40.3447929 12.01977539 40.3225708 C10.0020388 40.31251017 7.98455288 40.31218735 5.96679688 40.31567383 C2.10274896 40.32206969 -1.76097475 40.314184 -5.625 40.30078125 C-6.83333496 40.30169266 -8.04166992 40.30260406 -9.28662109 40.30354309 C-10.40117676 40.29401108 -11.51573242 40.28447906 -12.6640625 40.2746582 C-14.14060303 40.26774712 -14.14060303 40.26774712 -15.64697266 40.26069641 C-18 40 -18 40 -20 38 C-20.25878906 35.6809082 -20.25878906 35.6809082 -20.265625 32.80078125 C-20.26820312 31.75599609 -20.27078125 30.71121094 -20.2734375 29.63476562 C-20.26183594 27.99024414 -20.26183594 27.99024414 -20.25 26.3125 C-20.25773437 25.23548828 -20.26546875 24.15847656 -20.2734375 23.04882812 C-20.25944499 17.34338149 -20.10965521 12.33618672 -18 7 C-15.6875 5 -15.6875 5 -13 4 C-10.1875 4.3125 -10.1875 4.3125 -8 5 C-8 5.66 -8 6.32 -8 7 C-5.69 7 -3.38 7 -1 7 C-0.67 4.69 -0.34 2.38 0 0 Z M7 6 C7 6.33 7 6.66 7 7 C8.98 7 10.96 7 13 7 C13 6.67 13 6.34 13 6 C11.02 6 9.04 6 7 6 Z M8 12 C12 13 12 13 12 13 Z M28 12 C28 12.33 28 12.66 28 13 C29.65 13 31.3 13 33 13 C33 12.67 33 12.34 33 12 C31.35 12 29.7 12 28 12 Z M-2 19 C-1 21 -1 21 -1 21 Z M21 19 C22 21 22 21 22 21 Z M-3 21 C-2 25 -2 25 -2 25 Z M22 22 C23 25 23 25 23 25 Z M-17 25 C-17 28.96 -17 32.92 -17 37 C-13.7 37 -10.4 37 -7 37 C-7.66 36.67 -8.32 36.34 -9 36 C-8.67 34.68 -8.34 33.36 -8 32 C-6.68 32 -5.36 32 -4 32 C-3.67 33.32 -3.34 34.64 -3 36 C-3.99 36.495 -3.99 36.495 -5 37 C-0.71 37 3.58 37 8 37 C6.68 36.34 5.36 35.68 4 35 C-0.75888659 32.4464511 -3.27557244 30.17328267 -5 25 C-8.96 25 -12.92 25 -17 25 Z M-2 25 C-1 28 -1 28 -1 28 Z M21 25 C22 28 22 28 22 28 Z M25 25 C24.62875 25.9075 24.2575 26.815 23.875 27.75 C21.00173503 32.73032594 17.03790999 34.48104501 12 37 C20.25 37 28.5 37 37 37 C37 33.04 37 29.08 37 25 C33.04 25 29.08 25 25 25 Z M6 33 C6 33.33 6 33.66 6 34 C8.64 34 11.28 34 14 34 C14 33.67 14 33.34 14 33 C11.36 33 8.72 33 6 33 Z " fill="#0D4A98" transform="translate(28,14)"/>
<path d="M0 0 C1.11181641 0.09087891 1.11181641 0.09087891 2.24609375 0.18359375 C2.98988281 0.22613281 3.73367187 0.26867187 4.5 0.3125 C6.68359375 0.62109375 6.68359375 0.62109375 8.8984375 1.2109375 C9.48753906 1.34628906 10.07664062 1.48164063 10.68359375 1.62109375 C11.01359375 1.29109375 11.34359375 0.96109375 11.68359375 0.62109375 C15.79669839 0.18725715 19.47920211 -0.01121186 23.18359375 1.93359375 C25.59201124 4.64306342 25.80735715 7.16056215 25.78125 10.6328125 C25.77802734 11.39013672 25.77480469 12.14746094 25.77148438 12.92773438 C25.75891602 14.10625977 25.75891602 14.10625977 25.74609375 15.30859375 C25.74158203 16.10587891 25.73707031 16.90316406 25.73242188 17.72460938 C25.72065225 19.69013632 25.70271723 21.6556246 25.68359375 23.62109375 C22.38359375 23.62109375 19.08359375 23.62109375 15.68359375 23.62109375 C15.18859375 17.18609375 15.18859375 17.18609375 14.68359375 10.62109375 C14.35359375 14.91109375 14.02359375 19.20109375 13.68359375 23.62109375 C10.71359375 23.62109375 7.74359375 23.62109375 4.68359375 23.62109375 C4.35359375 19.33109375 4.02359375 15.04109375 3.68359375 10.62109375 C3.35359375 14.91109375 3.02359375 19.20109375 2.68359375 23.62109375 C-0.61640625 23.62109375 -3.91640625 23.62109375 -7.31640625 23.62109375 C-7.45220975 20.91105948 -7.55085249 18.20790434 -7.62890625 15.49609375 C-7.67080078 14.73554687 -7.71269531 13.975 -7.75585938 13.19140625 C-7.84364726 9.11804816 -7.60280458 6.39435552 -5.08203125 3.09375 C-2.31640625 0.62109375 -2.31640625 0.62109375 0 0 Z " fill="#010101" transform="translate(103.31640625,25.37890625)"/>
<path d="M0 0 C3.03156534 1.53404511 5.43706006 3.44322782 6.6328125 6.75 C7.89271283 14.47024032 8.14941794 22.49846234 4.265625 29.44921875 C1.95285293 32.28307836 0.12354106 33.87232488 -3.578125 34.29296875 C-4.45984375 34.25816406 -5.3415625 34.22335938 -6.25 34.1875 C-7.58804688 34.14689453 -7.58804688 34.14689453 -8.953125 34.10546875 C-9.62859375 34.07066406 -10.3040625 34.03585938 -11 34 C-11 31.03 -11 28.06 -11 25 C-8.69 25 -6.38 25 -4 25 C-4 24.34 -4 23.68 -4 23 C-5.216875 22.938125 -6.43375 22.87625 -7.6875 22.8125 C-10.97858008 22.38069162 -12.09828904 21.93098854 -14.9375 19.9375 C-17.51796534 16.26229179 -18.29784643 13.46769643 -18 9 C-16.81176223 5.5012999 -15.6603294 3.60029946 -12.9375 1.125 C-8.57967346 -0.54395484 -4.59997446 -0.79360582 0 0 Z M-8 10 C-8 10.66 -8 11.32 -8 12 C-5.525 12.495 -5.525 12.495 -3 13 C-3.33 11.68 -3.66 10.36 -4 9 C-6.0745356 8.8509288 -6.0745356 8.8509288 -8 10 Z " fill="#010101" transform="translate(178,26)"/>
<path d="M0 0 C5.94 0 11.88 0 18 0 C17.67 0.99 17.34 1.98 17 3 C17.42776606 5.69464365 17.42776606 5.69464365 19 8 C22.05272465 8.89830839 22.05272465 8.89830839 25 9 C25 10.65 25 12.3 25 14 C27.97 14 30.94 14 34 14 C34 12.35 34 10.7 34 9 C34.66 9 35.32 9 36 9 C36 12.96 36 16.92 36 21 C31.71 21 27.42 21 23 21 C22.34 19.35 21.68 17.7 21 16 C19.36504293 14.94895617 17.70116376 13.94011682 16 13 C16 12.34 16 11.68 16 11 C13.77191841 10.89146017 11.54230068 10.81416693 9.3125 10.75 C8.07113281 10.70359375 6.82976563 10.6571875 5.55078125 10.609375 C1.40073665 11.06592556 -0.10238173 12.06038726 -3 15 C-4.80979141 18.11662908 -4.80979141 18.11662908 -6 21 C-9.96 21 -13.92 21 -18 21 C-18.09765625 11.72265625 -18.09765625 11.72265625 -18 9 C-15.94077598 6.94077598 -11.78291876 7.58572421 -8.9375 7.4375 C-8.17888672 7.39431641 -7.42027344 7.35113281 -6.63867188 7.30664062 C-4.75934562 7.20026367 -2.87969756 7.09960066 -1 7 C-0.67 4.69 -0.34 2.38 0 0 Z M6 5 C6 5.33 6 5.66 6 6 C7.98 6 9.96 6 12 6 C12 5.67 12 5.34 12 5 C10.02 5 8.04 5 6 5 Z " fill="#0C5DC1" transform="translate(29,15)"/>
<path d="M0 0 C2.73377373 1.36688687 3.92288457 2.64957991 6 5 C7.2062252 8.61867559 7.10816918 11.92506251 7.0625 15.6875 C7.05798828 16.38939453 7.05347656 17.09128906 7.04882812 17.81445312 C7.03706927 19.54300538 7.01913454 21.27151365 7 23 C-6.41991342 24.65512266 -6.41991342 24.65512266 -13 22 C-15.94420832 19.48515539 -17.63879551 17.65502715 -18.4765625 13.81640625 C-18.74675455 9.59998828 -18.31111639 6.82566791 -15.625 3.5 C-10.95022951 -0.95216237 -6.24843514 -0.80085577 0 0 Z M-6 9 C-6.99 9.99 -7.98 10.98 -9 12 C-8.34 12.66 -7.68 13.32 -7 14 C-5.68 14 -4.36 14 -3 14 C-3 12.68 -3 11.36 -3 10 C-3.99 9.67 -4.98 9.34 -6 9 Z " fill="#010101" transform="translate(247,26)"/>
<path d="M0 0 C1.2684375 -0.00773437 1.2684375 -0.00773437 2.5625 -0.015625 C6.41841263 0.40457061 8.25866103 1.35206358 10.73828125 4.35546875 C12.3813571 8.12487805 12.32786501 11.53510394 12.1875 15.5625 C12.16719727 16.67334961 12.16719727 16.67334961 12.14648438 17.80664062 C12.11135979 19.62141075 12.05755972 21.43580288 12 23.25 C9.03 23.25 6.06 23.25 3 23.25 C2.67 18.96 2.34 14.67 2 10.25 C0.35 10.25 -1.3 10.25 -3 10.25 C-2.67 11.24 -2.34 12.23 -2 13.25 C-0.68 13.58 0.64 13.91 2 14.25 C2 17.55 2 20.85 2 24.25 C-3.64336328 23.8673991 -6.89915226 23.47146091 -11 19.25 C-13.52481154 15.76335549 -13.43474022 12.45248882 -13 8.25 C-9.78780031 2.16976488 -6.83692321 -0.04168856 0 0 Z " fill="#010101" transform="translate(145,25.75)"/>
<path d="M0 0 C3.4375 1.625 3.4375 1.625 6 4 C6.66 5.98 7.32 7.96 8 10 C3.05 10 -1.9 10 -7 10 C-7 10.99 -7 11.98 -7 13 C-6.38125 12.835 -5.7625 12.67 -5.125 12.5 C-0.74529271 11.79924683 3.57428989 11.92265749 8 12 C7.58534283 16.83766699 5.5801385 18.85646376 2 22 C-1.47182303 23.73591152 -5.20408964 23.46571673 -9 23 C-12.18500291 21.37854397 -14.22111096 20.02671736 -16.375 17.1875 C-17.73537221 12.42619727 -17.56878187 9.07662283 -15.25 4.6875 C-10.98960581 -0.40130417 -6.35507863 -0.88112009 0 0 Z " fill="#010101" transform="translate(219,26)"/>
<path d="M0 0 C6.6 0 13.2 0 20 0 C20.495 3.465 20.495 3.465 21 7 C22.13179687 6.89300781 23.26359375 6.78601563 24.4296875 6.67578125 C25.91139121 6.55386892 27.39316612 6.43281984 28.875 6.3125 C29.62136719 6.23966797 30.36773437 6.16683594 31.13671875 6.09179688 C33.3046875 5.92578125 33.3046875 5.92578125 37 6 C39.03120707 9.04681061 39.24659875 9.60118324 39.1953125 13.01171875 C39.18886719 13.76904297 39.18242188 14.52636719 39.17578125 15.30664062 C39.15902344 16.09232422 39.14226562 16.87800781 39.125 17.6875 C39.11597656 18.48478516 39.10695312 19.28207031 39.09765625 20.10351562 C39.07411585 22.069139 39.03824547 24.03460775 39 26 C38.505 25.01 38.505 25.01 38 24 C36.04082341 24.0868748 34.08258129 24.19504512 32.125 24.3125 C31.03445312 24.37050781 29.94390625 24.42851563 28.8203125 24.48828125 C27.88960937 24.65714844 26.95890625 24.82601562 26 25 C25.34 25.99 24.68 26.98 24 28 C24 27.34 24 26.68 24 26 C23.34 25.67 22.68 25.34 22 25 C22.66 23.68 23.32 22.36 24 21 C28.29 21.33 32.58 21.66 37 22 C37 18.04 37 14.08 37 10 C36.34 10 35.68 10 35 10 C35 11.65 35 13.3 35 15 C32.04335481 16.4783226 29.25770263 16.06032783 26 16 C25.505 13.525 25.505 13.525 25 11 C23.576875 10.7215625 23.576875 10.7215625 22.125 10.4375 C19 9 19 9 17.625 5.375 C17.41875 4.26125 17.2125 3.1475 17 2 C17.66 1.67 18.32 1.34 19 1 C13.06 1 7.12 1 1 1 C1 3.31 1 5.62 1 8 C-1.05922402 10.05922402 -5.21708124 9.41427579 -8.0625 9.5625 C-9.20041992 9.62727539 -9.20041992 9.62727539 -10.36132812 9.69335938 C-12.24065438 9.79973633 -14.12030244 9.90039934 -16 10 C-16.33 13.96 -16.66 17.92 -17 22 C-13.04 22 -9.08 22 -5 22 C-5 22.33 -5 22.66 -5 23 C-5.84304687 23.03738281 -6.68609375 23.07476562 -7.5546875 23.11328125 C-9.19824219 23.21189453 -9.19824219 23.21189453 -10.875 23.3125 C-11.96554688 23.37050781 -13.05609375 23.42851563 -14.1796875 23.48828125 C-15.11039063 23.65714844 -16.04109375 23.82601562 -17 24 C-17.66 24.99 -18.32 25.98 -19 27 C-20.61672397 12.47133193 -20.61672397 12.47133193 -18 7 C-15.6875 5 -15.6875 5 -13 4 C-10.1875 4.3125 -10.1875 4.3125 -8 5 C-8 5.66 -8 6.32 -8 7 C-5.69 7 -3.38 7 -1 7 C-0.67 4.69 -0.34 2.38 0 0 Z M28 12 C28 12.33 28 12.66 28 13 C29.65 13 31.3 13 33 13 C33 12.67 33 12.34 33 12 C31.35 12 29.7 12 28 12 Z " fill="#0B55A9" transform="translate(28,14)"/>
<path d="M0 0 C3.3 0 6.6 0 10 0 C10 10.56 10 21.12 10 32 C6.7 32 3.4 32 0 32 C0 21.44 0 10.88 0 0 Z " fill="#000000" transform="translate(258,17)"/>
<path d="M0 0 C3.3 0 6.6 0 10 0 C10 10.56 10 21.12 10 32 C6.7 32 3.4 32 0 32 C0 21.44 0 10.88 0 0 Z " fill="#020202" transform="translate(81,17)"/>
<path d="M0 0 C4.63235294 2.26470588 4.63235294 2.26470588 6 5 C6.45404871 9.08643837 6.66920478 11.15809721 4.0625 14.4375 C-0.0595942 16.54060929 -3.4585026 16.82187546 -8 16 C-10.5625 14.4375 -10.5625 14.4375 -12 12 C-12.5 8.5 -12.5 8.5 -12 5 C-8.43922114 0.48968011 -5.66580356 -0.44437675 0 0 Z " fill="#54A2FA" transform="translate(41,29)"/>
<path d="M0 0 C3.3 0 6.6 0 10 0 C10 7.59 10 15.18 10 23 C6.7 23 3.4 23 0 23 C0 15.41 0 7.82 0 0 Z " fill="#000000" transform="translate(189,26)"/>
<path d="M0 0 C0.66 0.33 1.32 0.66 2 1 C2.625 4.0625 2.625 4.0625 3 7 C2.45730469 7.36351562 1.91460937 7.72703125 1.35546875 8.1015625 C-3.15418557 11.27050878 -5.97574073 13.68631943 -8 19 C-11.96 19 -15.92 19 -20 19 C-20.09765625 9.72265625 -20.09765625 9.72265625 -20 7 C-17.83141404 4.83141404 -11.98786539 5.75151646 -8.90234375 5.74609375 C-6.47401226 5.71281418 -6.47401226 5.71281418 -3 5 C-0.92181631 2.60786559 -0.92181631 2.60786559 0 0 Z " fill="#55A3FB" transform="translate(31,17)"/>
<path d="M0 0 C3.25948498 0.41006424 6.39580052 0.66868385 9.6875 0.5625 C9.6875 1.2225 9.6875 1.8825 9.6875 2.5625 C10.285625 2.665625 10.88375 2.76875 11.5 2.875 C14.04416511 3.67459475 15.1532452 4.38224318 16.6875 6.5625 C16.5625 8.3125 16.5625 8.3125 15.6875 10.5625 C15.23375 11.738125 14.78 12.91375 14.3125 14.125 C12.07937526 18.84891773 12.07937526 18.84891773 9.6875 20.5625 C6.47265625 20.99609375 6.47265625 20.99609375 2.75 21 C1.52410156 21.01933594 0.29820313 21.03867187 -0.96484375 21.05859375 C-4.3125 20.5625 -4.3125 20.5625 -6.703125 18.76171875 C-8.90144092 15.75770937 -9.10851502 13.2342297 -9.3125 9.5625 C-8.9825 8.9025 -8.6525 8.2425 -8.3125 7.5625 C-9.3025 7.2325 -10.2925 6.9025 -11.3125 6.5625 C-5.41107295 -0.73663346 -5.41107295 -0.73663346 0 0 Z M-5.3125 6.5625 C-6.85836876 9.65423752 -6.60609521 12.15679552 -6.3125 15.5625 C-5.02357713 18.18533334 -5.02357713 18.18533334 -2.3125 19.5625 C2.2289974 20.38437546 5.6279058 20.10310929 9.75 18 C11.97278674 15.61237329 11.97278674 15.61237329 12.25 12.0625 C11.61269445 8.09704327 10.8251325 6.96186603 7.6875 4.5625 C2.88192511 2.15971255 -1.20165429 3.5087289 -5.3125 6.5625 Z M13.6875 7.5625 C14.6875 9.5625 14.6875 9.5625 14.6875 9.5625 Z " fill="#1052A0" transform="translate(35.3125,25.4375)"/>
<path d="M0 0 C0.99 0.33 1.98 0.66 3 1 C3.268125 1.825 3.53625 2.65 3.8125 3.5 C4.4003125 4.7375 4.4003125 4.7375 5 6 C8.05272465 6.89830839 8.05272465 6.89830839 11 7 C11 8.65 11 10.3 11 12 C13.97 12 16.94 12 20 12 C20 10.35 20 8.7 20 7 C20.66 7 21.32 7 22 7 C22 10.96 22 14.92 22 19 C18.04 19 14.08 19 10 19 C9.79375 17.9275 9.5875 16.855 9.375 15.75 C7.71971928 11.23559803 6.1312254 10.27638951 2 8 C1.01 7.34 0.02 6.68 -1 6 C-0.835 5.38125 -0.67 4.7625 -0.5 4.125 C0.07634644 2.03936614 0.07634644 2.03936614 0 0 Z " fill="#54A4FD" transform="translate(43,17)"/>
<path d="M0 0 C0.268125 0.556875 0.53625 1.11375 0.8125 1.6875 C3.67231652 7.59778164 3.67231652 7.59778164 9 11 C16.25165226 12.08123285 16.25165226 12.08123285 22.82421875 9.65625 C24.30315691 7.83393815 24.30315691 7.83393815 26 5 C26.66 5 27.32 5 28 5 C27.70179167 8.57849992 27.25754642 9.76226484 24.5625 12.25 C20.79046988 14.82602057 18.74739693 15.18252927 14.1875 15.25 C13.14980469 15.27578125 12.11210938 15.3015625 11.04296875 15.328125 C6.35466743 14.82258288 3.8379364 12.90587719 0.6875 9.5 C-1 7 -1 7 -1 4 C-4.63 4 -8.26 4 -12 4 C-12 3.67 -12 3.34 -12 3 C-8.04 3 -4.08 3 0 3 C0 2.01 0 1.02 0 0 Z M10 12 C10 12.33 10 12.66 10 13 C12.64 13 15.28 13 18 13 C18 12.67 18 12.34 18 12 C15.36 12 12.72 12 10 12 Z " fill="#164D92" transform="translate(24,35)"/>
<path d="M0 0 C0.66 0.33 1.32 0.66 2 1 C2.04946866 5.07507572 2.08575189 9.15003497 2.10986328 13.2253418 C2.1199157 14.61144048 2.1335597 15.99751799 2.15087891 17.38354492 C2.17515952 19.3766975 2.18542031 21.37000533 2.1953125 23.36328125 C2.20578613 24.56251221 2.21625977 25.76174316 2.22705078 26.99731445 C2 30 2 30 0 33 C-3.125 33.1875 -3.125 33.1875 -6 33 C-6 32.67 -6 32.34 -6 32 C-8.31 31.67 -10.62 31.34 -13 31 C-13 30.67 -13 30.34 -13 30 C-9.04 30 -5.08 30 -1 30 C-1 26.04 -1 22.08 -1 18 C-4.63 18 -8.26 18 -12 18 C-12 17.67 -12 17.34 -12 17 C-8.04 17 -4.08 17 0 17 C0 11.39 0 5.78 0 0 Z " fill="#124586" transform="translate(66,21)"/>
<path d="M0 0 C5.28 0 10.56 0 16 0 C16.33 0.66 16.66 1.32 17 2 C16.34 2 15.68 2 15 2 C15 3.65 15 5.3 15 7 C12.04335481 8.4783226 9.25770263 8.06032783 6 8 C5.67 6.35 5.34 4.7 5 3 C3.35 2.67 1.7 2.34 0 2 C0 1.34 0 0.68 0 0 Z M8 4 C8 4.33 8 4.66 8 5 C9.65 5 11.3 5 13 5 C13 4.67 13 4.34 13 4 C11.35 4 9.7 4 8 4 Z " fill="#1260B6" transform="translate(48,22)"/>
<path d="M0 0 C0 0.66 0 1.32 0 2 C3.63 2 7.26 2 11 2 C11 2.33 11 2.66 11 3 C3.08 3.495 3.08 3.495 -5 4 C-5.33 7.96 -5.66 11.92 -6 16 C-2.04 16 1.92 16 6 16 C6 16.33 6 16.66 6 17 C5.15695313 17.03738281 4.31390625 17.07476562 3.4453125 17.11328125 C1.80175781 17.21189453 1.80175781 17.21189453 0.125 17.3125 C-0.96554688 17.37050781 -2.05609375 17.42851563 -3.1796875 17.48828125 C-4.11039063 17.65714844 -5.04109375 17.82601562 -6 18 C-6.66 18.99 -7.32 19.98 -8 21 C-9.59120561 6.70065233 -9.59120561 6.70065233 -7 1 C-4 0 -4 0 0 0 Z " fill="#1C62B2" transform="translate(17,20)"/>
<path d="M0 0 C1.010625 0.0825 2.02125 0.165 3.0625 0.25 C5.0625 3.25 5.0625 3.25 4.75 5.875 C4.0625 8.25 4.0625 8.25 3.0625 9.25 C0.125 9.5 0.125 9.5 -2.9375 9.25 C-4.9375 6.25 -4.9375 6.25 -4.625 3.625 C-3.63837192 0.21664846 -3.64560971 0.31026466 0 0 Z " fill="#010101" transform="translate(193.9375,14.75)"/>
<path d="M0 0 C6.57868441 -0.71507439 11.51872036 1.35859045 17 5 C19.20136996 7.46630508 19.96021372 8.41646787 20.1875 11.75 C20.0946875 12.86375 20.0946875 12.86375 20 14 C19.731875 13.401875 19.46375 12.80375 19.1875 12.1875 C17.28837651 8.68911463 15.79963639 7.26654546 12 6 C12 5.34 12 4.68 12 4 C11.30132812 4.02320313 10.60265625 4.04640625 9.8828125 4.0703125 C8.97273438 4.08835937 8.06265625 4.10640625 7.125 4.125 C6.22007813 4.14820313 5.31515625 4.17140625 4.3828125 4.1953125 C2 4 2 4 0 2 C0 1.34 0 0.68 0 0 Z " fill="#0F62C3" transform="translate(33,22)"/>
<path d="M0 0 C6.6 0 13.2 0 20 0 C19.67 0.99 19.34 1.98 19 3 C19 2.34 19 1.68 19 1 C13.06 1 7.12 1 1 1 C1 3.31 1 5.62 1 8 C-2.96 8 -6.92 8 -11 8 C-11 7.34 -11 6.68 -11 6 C-11.66 6 -12.32 6 -13 6 C-13.33 6.66 -13.66 7.32 -14 8 C-13.67 6.68 -13.34 5.36 -13 4 C-11.35 4.33 -9.7 4.66 -8 5 C-8 5.66 -8 6.32 -8 7 C-5.69 7 -3.38 7 -1 7 C-0.67 4.69 -0.34 2.38 0 0 Z " fill="#164C92" transform="translate(28,14)"/>
<path d="M0 0 C-0.8125 2.4375 -0.8125 2.4375 -2 5 C-2.99 5.33 -3.98 5.66 -5 6 C-4.01 7.485 -4.01 7.485 -3 9 C-3.375 11.6875 -3.375 11.6875 -4 14 C-6 10.25 -6 10.25 -6 8 C-6.99 7.67 -7.98 7.34 -9 7 C-3.34042553 0 -3.34042553 0 0 0 Z " fill="#1357AD" transform="translate(33,25)"/>
<path d="M0 0 C1.32 0.33 2.64 0.66 4 1 C4 2.32 4 3.64 4 5 C11.92 4.505 11.92 4.505 20 4 C20 4.66 20 5.32 20 6 C14.06 6.33 8.12 6.66 2 7 C1.34 4.69 0.68 2.38 0 0 Z " fill="#1C5BA1" transform="translate(45,16)"/>
<path d="M0 0 C5.28 0 10.56 0 16 0 C16.33 0.66 16.66 1.32 17 2 C5.47835991 3.33257403 5.47835991 3.33257403 0 2 C0 1.34 0 0.68 0 0 Z " fill="#2273D3" transform="translate(48,22)"/>
<path d="M0 0 C1.65 0.33 3.3 0.66 5 1 C5 2.32 5 3.64 5 5 C1.25 6.125 1.25 6.125 -1 5 C-0.67 3.35 -0.34 1.7 0 0 Z " fill="#17519E" transform="translate(20,45)"/>
<path d="M0 0 C3.375 -0.125 3.375 -0.125 7 0 C7.66 0.66 8.32 1.32 9 2 C8.34 2 7.68 2 7 2 C7 2.66 7 3.32 7 4 C4.69 3.67 2.38 3.34 0 3 C0 2.01 0 1.02 0 0 Z " fill="#1E6DCD" transform="translate(33,22)"/>
<path d="M0 0 C1.42944945 2.35438733 2.08661261 3.48032433 1.625 6.25 C1.41875 6.8275 1.2125 7.405 1 8 C0.34 7.67 -0.32 7.34 -1 7 C-1 6.01 -1 5.02 -1 4 C-4.63 4 -8.26 4 -12 4 C-12 3.67 -12 3.34 -12 3 C-8.04 3 -4.08 3 0 3 C0 2.01 0 1.02 0 0 Z " fill="#225793" transform="translate(24,35)"/>
<path d="M0 0 C6.93 0.495 6.93 0.495 14 1 C14 1.33 14 1.66 14 2 C10.37 2 6.74 2 3 2 C2.67 3.65 2.34 5.3 2 7 C1.67 6.34 1.34 5.68 1 5 C0.34 4.67 -0.32 4.34 -1 4 C-0.67 2.68 -0.34 1.36 0 0 Z " fill="#2260AF" transform="translate(51,35)"/>
<path d="M0 0 C2.31 0.33 4.62 0.66 7 1 C7 1.99 7 2.98 7 4 C4.36 4 1.72 4 -1 4 C-0.67 2.68 -0.34 1.36 0 0 Z " fill="#0C4D9B" transform="translate(34,18)"/>
<path d="M0 0 C0.66 0 1.32 0 2 0 C2 2.64 2 5.28 2 8 C1.01 8 0.02 8 -1 8 C-1.33 7.01 -1.66 6.02 -2 5 C-1.34 5 -0.68 5 0 5 C0 3.35 0 1.7 0 0 Z " fill="#4C9FF7" transform="translate(63,24)"/>
<path d="M0 0 C0.66 0 1.32 0 2 0 C1.67 1.65 1.34 3.3 1 5 C-0.32 5.33 -1.64 5.66 -3 6 C-2 4 -1 2 0 0 Z " fill="#1B589D" transform="translate(50,40)"/>
</svg>
